<?xml version="1.0" standalone="no"?>
<!DOCTYPE svg PUBLIC "-//W3C//DTD SVG 20010904//EN"
 "http://www.w3.org/TR/2001/REC-SVG-20010904/DTD/svg10.dtd">
<svg version="1.0" xmlns="http://www.w3.org/2000/svg"
 width="594.000000pt" height="594.000000pt" viewBox="0 0 594.000000 594.000000"
 preserveAspectRatio="xMidYMid meet">
<metadata>
Created by potrace 1.11, written by Peter Selinger 2001-2013
</metadata>
<g transform="translate(0.000000,594.000000) scale(0.100000,-0.100000)"
fill="#000000" stroke="none">
<path d="M400 5804 c-29 -74 -94 -313 -121 -444 -41 -193 -51 -464 -24 -617
39 -217 128 -415 277 -613 10 -14 26 -36 36 -48 9 -13 46 -54 82 -90 37 -37
50 -53 30 -37 -20 17 -1 -5 42 -47 139 -137 307 -232 486 -275 69 -16 232 -22
412 -13 89 4 98 2 145 -23 58 -32 122 -77 109 -77 -5 0 7 -14 26 -32 19 -18
39 -31 43 -30 5 1 6 -2 2 -7 -8 -13 47 -41 80 -41 58 0 132 47 161 102 24 47
17 89 -33 184 -45 85 -48 93 -48 169 0 74 4 88 47 185 69 156 89 234 95 385
10 236 -52 445 -202 675 -59 92 -164 222 -174 215 -5 -2 -14 2 -21 10 -7 8 -9
15 -4 15 5 0 -16 25 -46 55 -29 30 -57 52 -61 49 -4 -2 -16 6 -26 19 -22 28
-186 138 -263 177 -207 104 -498 165 -852 177 l-187 6 -11 -29z m759 -455
c295 -75 467 -194 681 -473 14 -18 13 -19 -35 -12 -105 16 -276 66 -358 104
-114 53 -187 103 -276 187 -79 75 -201 212 -201 227 0 11 48 3 189 -33z m-184
-232 c282 -212 447 -403 570 -660 56 -116 148 -378 143 -404 -2 -11 -25 1 -83
42 -295 211 -480 433 -606 724 -38 89 -109 288 -123 344 -8 34 -9 35 99 -46z
m-325 -103 c83 -128 146 -263 177 -381 21 -81 25 -123 27 -243 0 -80 -3 -176
-7 -213 -10 -81 -14 -80 -85 31 -73 114 -129 230 -157 327 -29 102 -48 280
-40 380 12 150 17 195 20 195 2 0 31 -43 65 -96z m1185 -1434 c10 -11 16 -20
13 -20 -3 0 -13 9 -23 20 -10 11 -16 20 -13 20 3 0 13 -9 23 -20z m305 -44 c0
-2 -8 -10 -17 -17 -16 -13 -17 -12 -4 4 13 16 21 21 21 13z"/>
<path d="M4130 4223 c-153 -16 -361 -73 -475 -130 -136 -69 -277 -193 -358
-315 -21 -32 -64 -113 -96 -180 -82 -174 -133 -214 -309 -242 -111 -18 -122
-30 -122 -133 0 -82 19 -138 51 -148 11 -4 17 -11 13 -16 -12 -20 79 -49 157
-49 141 0 213 -39 308 -164 28 -37 51 -70 51 -74 0 -12 96 -103 102 -97 3 3
11 -3 19 -12 13 -17 13 -17 -6 -3 -11 8 -6 -1 10 -19 81 -89 275 -184 455
-222 86 -18 135 -22 270 -22 575 2 950 229 1337 808 96 144 113 178 113 222 0
35 -7 48 -42 85 -24 24 -32 30 -18 14 l25 -31 -32 29 c-18 16 -30 33 -27 37 3
5 -28 41 -68 82 -40 40 -62 59 -48 42 14 -17 -12 7 -58 55 -46 47 -81 78 -77
70 4 -8 -9 2 -27 23 -18 20 -36 37 -41 37 -4 0 -35 22 -70 49 -202 158 -433
263 -650 296 -94 13 -294 18 -387 8z m157 -244 c190 -21 347 -84 551 -221
l107 -72 -45 -9 c-25 -4 -121 -6 -215 -4 -283 8 -420 56 -678 235 -43 30 -75
57 -72 61 6 6 114 16 208 19 26 1 91 -3 144 -9z m118 -499 c134 -12 437 -70
432 -83 -4 -12 -216 -99 -346 -141 -196 -64 -294 -79 -496 -80 -126 0 -210 5
-280 18 -141 24 -285 58 -285 67 0 17 264 126 397 163 206 59 372 75 578 56z
m575 -308 c0 -5 -55 -63 -123 -129 -180 -177 -313 -257 -517 -312 -76 -20
-272 -52 -279 -45 -6 6 137 160 197 212 160 137 308 207 532 251 166 32 190
35 190 23z m-1982 -109 c-16 -2 -40 -2 -55 0 -16 2 -3 4 27 4 30 0 43 -2 28
-4z m203 -80 c13 -16 12 -17 -3 -4 -17 13 -22 21 -14 21 2 0 10 -8 17 -17z
m2099 3 c0 -2 -8 -10 -17 -17 -16 -13 -17 -12 -4 4 13 16 21 21 21 13z m-60
-69 c0 -1 -30 -32 -67 -67 l-68 -65 65 68 c60 62 70 72 70 64z m-170 -161 c0
-2 -8 -10 -17 -17 -16 -13 -17 -12 -4 4 13 16 21 21 21 13z m-583 -282 c-3 -3
-12 -4 -19 -1 -8 3 -5 6 6 6 11 1 17 -2 13 -5z m-560 -10 c-3 -3 -12 -4 -19
-1 -8 3 -5 6 6 6 11 1 17 -2 13 -5z m500 0 c-3 -3 -12 -4 -19 -1 -8 3 -5 6 6
6 11 1 17 -2 13 -5z m-434 -11 c-7 -2 -19 -2 -25 0 -7 3 -2 5 12 5 14 0 19 -2
13 -5z m360 0 c-7 -2 -21 -2 -30 0 -10 3 -4 5 12 5 17 0 24 -2 18 -5z m-155
-10 c-27 -2 -69 -2 -95 0 -27 2 -5 3 47 3 52 0 74 -1 48 -3z"/>
<path d="M2072 2815 c-12 -9 -36 -44 -53 -78 -74 -146 -138 -193 -286 -208
-248 -24 -400 -77 -555 -191 -328 -242 -556 -778 -509 -1199 27 -234 92 -433
242 -735 114 -230 131 -250 214 -248 28 0 106 15 173 33 605 155 941 395 1146
815 108 220 151 392 150 601 -1 220 -46 361 -180 563 -41 62 -82 129 -91 150
-23 54 -19 135 12 235 24 77 26 93 16 127 -28 93 -213 183 -279 135z m-142
-737 c-42 -393 -150 -664 -378 -950 -68 -85 -193 -220 -198 -215 -7 7 26 252
47 352 57 273 168 509 336 715 75 92 195 221 201 216 2 -3 -1 -56 -8 -118z
m-745 -319 c70 -263 54 -484 -56 -770 -17 -43 -34 -79 -39 -79 -10 0 -47 115
-75 230 -26 103 -31 338 -11 441 19 91 61 224 97 304 l22 50 19 -41 c10 -23
29 -84 43 -135z m1082 -370 c-12 -45 -126 -236 -187 -312 -77 -96 -167 -174
-279 -240 -82 -49 -272 -139 -279 -133 -2 2 15 39 36 82 107 212 254 382 414
482 78 48 270 142 292 142 4 0 6 -9 3 -21z m-97 -682 c0 -2 -17 -19 -37 -38
l-38 -34 34 38 c33 34 41 42 41 34z m-110 -101 c0 -2 -8 -10 -17 -17 -16 -13
-17 -12 -4 4 13 16 21 21 21 13z"/>
</g>
</svg>
